<svg xmlns="http://www.w3.org/2000/svg" width="300" height="276.026" viewBox="0 0 79.375 73.032"><g transform="matrix(1.11434 0 0 1.11434 -2.528 -258.613)" fill="#bfbfbf"><circle r=".301" cy="273.18" cx="7.049" paint-order="stroke fill markers"/><circle cx="5.446" cy="274.516" r=".1" paint-order="stroke fill markers"/><circle r=".2" cy="272.438" cx="5.646" paint-order="stroke fill markers"/><circle cx="6.13" cy="273.657" r=".234" paint-order="stroke fill markers"/><circle r=".249" cy="268.256" cx="7.464" paint-order="stroke fill markers"/><circle cx="4.806" cy="275.06" r=".181" paint-order="stroke fill markers"/><circle r=".104" cy="268.338" cx="6.457" paint-order="stroke fill markers"/><circle cx="8.867" cy="259.594" r=".314" paint-order="stroke fill markers"/><circle cx="11.925" cy="275.008" r=".183" paint-order="stroke fill markers"/><circle r=".235" cy="267.394" cx="16.453" paint-order="stroke fill markers"/><circle cx="20.587" cy="270.435" r=".206" paint-order="stroke fill markers"/><circle r=".233" cy="274.045" cx="7.085" paint-order="stroke fill markers"/><circle cx="11.138" cy="271.38" r=".184" paint-order="stroke fill markers"/><circle cx="4.923" cy="268.223" r=".282" paint-order="stroke fill markers"/><circle cx="24.722" cy="264.655" r=".215" paint-order="stroke fill markers"/><circle r=".107" cy="267.332" cx="20.165" paint-order="stroke fill markers"/><circle r=".232" cy="273.903" cx="8.802" paint-order="stroke fill markers"/><circle cx="19.847" cy="276.908" r=".219" paint-order="stroke fill markers"/><circle r=".092" cy="268.058" cx="13.947" paint-order="stroke fill markers"/><circle cx="16.514" cy="267.507" r=".327" paint-order="stroke fill markers"/><circle cx="17.089" cy="271.699" r=".208" paint-order="stroke fill markers"/><circle cx="46.644" cy="263.526" r=".327" paint-order="stroke fill markers"/><circle r=".245" cy="262.142" cx="15.403" paint-order="stroke fill markers"/><circle cx="14.715" cy="276.248" r=".185" paint-order="stroke fill markers"/><circle cx="18.599" cy="263.47" r=".329" paint-order="stroke fill markers"/><circle r=".242" cy="270.712" cx="13.085" paint-order="stroke fill markers"/><circle cx="27.006" cy="261.574" r=".199" paint-order="stroke fill markers"/><circle cx="17.309" cy="269.906" r=".289" paint-order="stroke fill markers"/><circle r=".093" cy="258.084" cx="17.442" paint-order="stroke fill markers"/><circle cx="25.432" cy="260.975" r=".329" paint-order="stroke fill markers"/><circle r=".254" cy="258.975" cx="39.695" paint-order="stroke fill markers"/><circle cx="37.39" cy="268.312" r=".201" paint-order="stroke fill markers"/><circle cx="11.94" cy="261.873" r=".201" paint-order="stroke fill markers"/><circle r=".102" cy="269.159" cx="25.702" paint-order="stroke fill markers"/><circle cx="29.266" cy="259.109" r=".322" paint-order="stroke fill markers"/><circle r=".092" cy="250.212" cx="32.996" paint-order="stroke fill markers"/><circle cx="25.989" cy="246.984" r=".306" paint-order="stroke fill markers"/><circle r=".221" cy="242.531" cx="25.795" paint-order="stroke fill markers"/><circle cx="44.096" cy="247.352" r=".188" paint-order="stroke fill markers"/><circle cx="37.742" cy="236.217" r=".286" paint-order="stroke fill markers"/><circle r=".214" cy="259.63" cx="20.138" paint-order="stroke fill markers"/><circle r=".1" cy="274.178" cx="19.856" paint-order="stroke fill markers"/><circle cx="7.323" cy="262.388" r=".326" paint-order="stroke fill markers"/><circle r=".232" cy="251.541" cx="15.121" paint-order="stroke fill markers"/><circle cx="6.368" cy="266.429" r=".219" paint-order="stroke fill markers"/><circle r=".212" cy="263.354" cx="2.655" paint-order="stroke fill markers"/><circle cx="6.517" cy="262.22" r=".209" paint-order="stroke fill markers"/><circle r=".106" cy="261.424" cx="24.777" paint-order="stroke fill markers"/><circle cx="15.545" cy="255.163" r=".291" paint-order="stroke fill markers"/><circle cx="9.562" cy="257.877" r=".217" paint-order="stroke fill markers"/><circle cx="19.48" cy="257.842" r=".276" paint-order="stroke fill markers"/><circle r=".256" cy="252.167" cx="8.076" paint-order="stroke fill markers"/><circle cx="35.091" cy="247.639" r=".205" paint-order="stroke fill markers"/><circle r=".094" cy="250.418" cx="18.437" paint-order="stroke fill markers"/><circle cx="34.943" cy="248.235" r=".278" paint-order="stroke fill markers"/><circle r=".24" cy="248.684" cx="16.11" paint-order="stroke fill markers"/><circle cx="29.923" cy="240.663" r=".219" paint-order="stroke fill markers"/><circle cx="17.204" cy="243.923" r=".294" paint-order="stroke fill markers"/><circle cx="39.647" cy="246.265" r=".213" paint-order="stroke fill markers"/><circle cx="27.491" cy="247.145" r=".287" paint-order="stroke fill markers"/><circle r=".099" cy="251.228" cx="29.712" paint-order="stroke fill markers"/><circle cx="39.176" cy="242.038" r=".322" paint-order="stroke fill markers"/><circle r=".247" cy="232.323" cx="36.693" paint-order="stroke fill markers"/><circle cx="50.581" cy="239.194" r=".186" paint-order="stroke fill markers"/><circle r=".094" cy="243.076" cx="26.019" paint-order="stroke fill markers"/><circle cx="43.035" cy="247.459" r=".279" paint-order="stroke fill markers"/><circle r=".225" cy="234.035" cx="40.168" paint-order="stroke fill markers"/><circle r=".102" cy="237.962" cx="36.129" paint-order="stroke fill markers"/><circle cx="37.27" cy="250.012" r=".296" paint-order="stroke fill markers"/><circle cx="54.794" cy="248.805" r=".198" paint-order="stroke fill markers"/><circle r=".093" cy="264.405" cx="50.589" paint-order="stroke fill markers"/><circle cx="50.983" cy="250.249" r=".305" paint-order="stroke fill markers"/><circle r=".249" cy="264.283" cx="58.536" paint-order="stroke fill markers"/><circle cx="69.626" cy="263.147" r=".201" paint-order="stroke fill markers"/><circle r=".222" cy="265.167" cx="66.815" paint-order="stroke fill markers"/><circle cx="56.414" cy="257.509" r=".323" paint-order="stroke fill markers"/><circle r=".226" cy="262.986" cx="62.269" paint-order="stroke fill markers"/><circle transform="rotate(90)" cx="263.317" cy="-61.344" r=".203" paint-order="stroke fill markers"/><circle r=".101" cy="263.646" cx="65.327" paint-order="stroke fill markers"/><circle cx="69" cy="253.598" r=".325" paint-order="stroke fill markers"/><circle r=".256" cy="253.649" cx="67.374" paint-order="stroke fill markers"/><circle transform="rotate(90)" r=".095" cy="-53.613" cx="260.74" paint-order="stroke fill markers"/><circle cx="67.662" cy="251.51" r=".303" paint-order="stroke fill markers"/><circle r=".225" cy="251.218" cx="65.763" paint-order="stroke fill markers"/><circle transform="rotate(90)" cx="273.976" cy="-56.541" r=".22" paint-order="stroke fill markers"/><circle transform="rotate(90)" cx="265.348" cy="-56.688" r=".211" paint-order="stroke fill markers"/><circle transform="rotate(90)" cx="272.859" cy="-48.469" r=".292" paint-order="stroke fill markers"/><circle transform="rotate(90)" r=".222" cy="-57.787" cx="270.71" paint-order="stroke fill markers"/><circle transform="rotate(90)" r=".104" cy="-66.005" cx="273.105" paint-order="stroke fill markers"/><circle transform="rotate(90)" cx="275.666" cy="-44.486" r=".303" paint-order="stroke fill markers"/><circle transform="rotate(90)" r=".225" cy="-49.562" cx="261.411" paint-order="stroke fill markers"/><circle transform="rotate(90)" r=".094" cy="-41.791" cx="260.938" paint-order="stroke fill markers"/><circle transform="rotate(90)" r=".235" cy="-59.677" cx="283.282" paint-order="stroke fill markers"/><circle transform="rotate(90)" r=".093" cy="-49.316" cx="273.157" paint-order="stroke fill markers"/><circle transform="rotate(90)" cx="277.484" cy="-45.483" r=".329" paint-order="stroke fill markers"/><circle transform="rotate(90)" r=".249" cy="-58.882" cx="274.178" paint-order="stroke fill markers"/><circle transform="rotate(90)" cx="277.366" cy="-57.305" r=".21" paint-order="stroke fill markers"/><circle transform="rotate(90)" r=".099" cy="-52.042" cx="268.14" paint-order="stroke fill markers"/><circle transform="rotate(90)" cx="281.8" cy="-35.184" r=".275" paint-order="stroke fill markers"/><circle transform="rotate(90)" r=".234" cy="-45.32" cx="271.127" paint-order="stroke fill markers"/><circle transform="rotate(90)" cx="274.871" cy="-28.677" r=".183" paint-order="stroke fill markers"/><circle transform="rotate(90)" r=".106" cy="-41.678" cx="259.388" paint-order="stroke fill markers"/><circle transform="rotate(90)" cx="259.005" cy="-47.748" r=".311" paint-order="stroke fill markers"/><circle r=".236" cy="283.596" cx="57.664" paint-order="stroke fill markers"/><circle cx="68.162" cy="293.362" r=".202" paint-order="stroke fill markers"/><circle r=".094" cy="289.939" cx="59.766" paint-order="stroke fill markers"/><circle cx="65.865" cy="270.072" r=".201" paint-order="stroke fill markers"/><circle cx="63.317" cy="285.199" r=".306" paint-order="stroke fill markers"/><circle r=".215" cy="282.311" cx="48.709" paint-order="stroke fill markers"/><circle cx="50.151" cy="274.42" r=".214" paint-order="stroke fill markers"/><circle r=".1" cy="281.982" cx="69.413" paint-order="stroke fill markers"/><circle cx="66.303" cy="285.184" r=".305" paint-order="stroke fill markers"/><circle r=".239" cy="284.822" cx="53.401" paint-order="stroke fill markers"/><circle cx="52.263" cy="269.292" r=".286" paint-order="stroke fill markers"/><circle r=".256" cy="282.021" cx="45.974" paint-order="stroke fill markers"/><circle cx="25.359" cy="291.65" r=".194" paint-order="stroke fill markers"/><circle cx="24.574" cy="278.432" r=".321" paint-order="stroke fill markers"/><circle r=".253" cy="273.897" cx="24.674" paint-order="stroke fill markers"/><circle cx="32.553" cy="277.035" r=".201" paint-order="stroke fill markers"/><circle r=".101" cy="277.855" cx="20.23" paint-order="stroke fill markers"/><circle r=".253" cy="276.001" cx="14.679" paint-order="stroke fill markers"/><circle cx="42.228" cy="264.625" r=".201" paint-order="stroke fill markers"/><circle r=".092" cy="274.496" cx="19.571" paint-order="stroke fill markers"/><circle cx="13.531" cy="292.085" r=".309" paint-order="stroke fill markers"/><circle r=".243" cy="281.981" cx="5.615" paint-order="stroke fill markers"/><circle cx="13.761" cy="295.05" r=".209" paint-order="stroke fill markers"/><circle cx="4.992" cy="294.558" r=".321" paint-order="stroke fill markers"/><circle r=".212" cy="276.901" cx="29.76" paint-order="stroke fill markers"/><circle cx="14.075" cy="287.05" r=".182" paint-order="stroke fill markers"/><circle cx="12.474" cy="280.288" r=".278" paint-order="stroke fill markers"/><circle r=".253" cy="284.336" cx="22.166" paint-order="stroke fill markers"/><circle r=".109" cy="297.505" cx="39.958" paint-order="stroke fill markers"/><circle cx="32.112" cy="281.563" r=".321" paint-order="stroke fill markers"/><circle r=".245" cy="284.618" cx="59.038" paint-order="stroke fill markers"/><circle r=".098" cy="282.203" cx="54.935" paint-order="stroke fill markers"/><circle cx="46.901" cy="286.209" r=".3" paint-order="stroke fill markers"/><circle cx="55.377" cy="286.739" r=".209" paint-order="stroke fill markers"/><circle cx="61.284" cy="285.321" r=".191" paint-order="stroke fill markers"/><circle r=".099" cy="296.775" cx="65.591" paint-order="stroke fill markers"/><circle r=".257" cy="277.663" cx="59.112" paint-order="stroke fill markers"/><circle cx="56.866" cy="295.339" r=".204" paint-order="stroke fill markers"/><circle r=".098" cy="280.607" cx="62.407" paint-order="stroke fill markers"/><circle cx="53.641" cy="295.536" r=".297" paint-order="stroke fill markers"/><circle transform="rotate(90)" r=".24" cy="-30.165" cx="266.971" paint-order="stroke fill markers"/><circle transform="rotate(90)" cx="271.799" cy="-25.346" r=".202" paint-order="stroke fill markers"/><circle transform="rotate(90)" r=".1" cy="-25.497" cx="271.655" paint-order="stroke fill markers"/><circle transform="rotate(90)" cx="264.666" cy="-30.459" r=".208" paint-order="stroke fill markers"/><circle cx="69.869" cy="280.285" r=".286" paint-order="stroke fill markers"/><circle transform="rotate(90)" cx="266.577" cy="-32.839" r=".204" paint-order="stroke fill markers"/><circle transform="rotate(90)" r=".095" cy="-24.653" cx="270.617" paint-order="stroke fill markers"/><circle transform="rotate(90)" r=".255" cy="-42.501" cx="279.523" paint-order="stroke fill markers"/><circle r=".1" cy="271.319" cx="68.777" paint-order="stroke fill markers"/><circle cx="73.207" cy="267.903" r=".292" paint-order="stroke fill markers"/><circle transform="rotate(90)" r=".243" cy="-28.761" cx="264.927" paint-order="stroke fill markers"/><circle cx="73.154" cy="270.079" r=".209" paint-order="stroke fill markers"/><circle transform="rotate(90)" r=".093" cy="-41.644" cx="261.013" paint-order="stroke fill markers"/><circle r=".227" cy="278.743" cx="43.625" paint-order="stroke fill markers"/><circle cx="60.105" cy="275.209" r=".188" paint-order="stroke fill markers"/><circle r=".215" cy="248.523" cx="47.572" paint-order="stroke fill markers"/><circle cx="59.506" cy="262.034" r=".217" paint-order="stroke fill markers"/><circle r=".108" cy="260.605" cx="38.304" paint-order="stroke fill markers"/><circle cx="64.205" cy="262.065" r=".33" paint-order="stroke fill markers"/><circle r=".255" cy="260.691" cx="54.103" paint-order="stroke fill markers"/><circle cx="32.615" cy="249.179" r=".204" paint-order="stroke fill markers"/><circle cx="38.766" cy="244.392" r=".31" paint-order="stroke fill markers"/><circle r=".221" cy="238.745" cx="47.669" paint-order="stroke fill markers"/><circle cx="37.832" cy="253.359" r=".183" paint-order="stroke fill markers"/><circle r=".246" cy="243.503" cx="53.904" paint-order="stroke fill markers"/><circle cx="58.058" cy="238.233" r=".203" paint-order="stroke fill markers"/><circle cx="47.921" cy="239.428" r=".275" paint-order="stroke fill markers"/><circle r=".255" cy="241.476" cx="52.914" paint-order="stroke fill markers"/><circle transform="rotate(90)" cx="260.657" cy="-65.062" r=".198" paint-order="stroke fill markers"/><circle r=".221" cy="260.713" cx="69.304" paint-order="stroke fill markers"/><circle cx="64.577" cy="250.071" r=".197" paint-order="stroke fill markers"/><circle r=".092" cy="236.733" cx="67.097" paint-order="stroke fill markers"/><circle cx="62.884" cy="237.435" r=".318" paint-order="stroke fill markers"/><circle transform="rotate(90)" r=".242" cy="-65.607" cx="264.793" paint-order="stroke fill markers"/><circle transform="rotate(90)" cx="265.852" cy="-48.257" r=".204" paint-order="stroke fill markers"/><circle transform="rotate(90)" r=".103" cy="-51.214" cx="264.798" paint-order="stroke fill markers"/><circle transform="rotate(90)" cx="276.795" cy="-57.252" r=".328" paint-order="stroke fill markers"/><circle r=".253" cy="249.85" cx="5.844" paint-order="stroke fill markers"/><circle r=".234" cy="241.186" cx="21.274" paint-order="stroke fill markers"/><circle r=".091" cy="234.256" cx="34.868" paint-order="stroke fill markers"/><circle cx="36.278" cy="249.485" r=".298" paint-order="stroke fill markers"/><circle r=".242" cy="240.066" cx="17.642" paint-order="stroke fill markers"/><circle cx="31.618" cy="235.552" r=".205" paint-order="stroke fill markers"/><circle cx="19.298" cy="237.002" r=".306" paint-order="stroke fill markers"/><circle r=".222" cy="241.201" cx="35.9" paint-order="stroke fill markers"/><circle r=".098" cy="243.617" cx="43.954" paint-order="stroke fill markers"/><circle cx="28.175" cy="238.373" r=".319" paint-order="stroke fill markers"/><circle r=".223" cy="251.535" cx="55.104" paint-order="stroke fill markers"/><circle r=".103" cy="247.399" cx="60.619" paint-order="stroke fill markers"/><circle cx="71.558" cy="242.171" r=".202" paint-order="stroke fill markers"/><circle r=".096" cy="236.037" cx="71.494" paint-order="stroke fill markers"/><circle cx="59.571" cy="247.374" r=".299" paint-order="stroke fill markers"/><circle r=".239" cy="235.995" cx="59.728" paint-order="stroke fill markers"/><circle cx="64.544" cy="234.882" r=".22" paint-order="stroke fill markers"/><circle r=".097" cy="245.464" cx="67.772" paint-order="stroke fill markers"/><circle cx="69.914" cy="244.321" r=".313" paint-order="stroke fill markers"/><circle transform="rotate(90)" r=".239" cy="-57.146" cx="276.51" paint-order="stroke fill markers"/><circle transform="rotate(90)" r=".096" cy="-55.794" cx="259.784" paint-order="stroke fill markers"/><circle transform="rotate(90)" r=".235" cy="-68.132" cx="260.503" paint-order="stroke fill markers"/><circle transform="rotate(90)" r=".103" cy="-59.081" cx="273.186" paint-order="stroke fill markers"/><circle transform="rotate(90)" cx="270.388" cy="-65.796" r=".326" paint-order="stroke fill markers"/><circle transform="rotate(90)" r=".215" cy="-54.631" cx="285.76" paint-order="stroke fill markers"/><circle transform="rotate(90)" cx="266.074" cy="-50.04" r=".209" paint-order="stroke fill markers"/><circle transform="rotate(90)" r=".11" cy="-50.34" cx="275.907" paint-order="stroke fill markers"/><circle transform="rotate(90)" cx="282.861" cy="-57.714" r=".291" paint-order="stroke fill markers"/><circle transform="rotate(90)" r=".238" cy="-35.984" cx="268.978" paint-order="stroke fill markers"/><circle transform="rotate(90)" cx="274.344" cy="-45.557" r=".207" paint-order="stroke fill markers"/><circle transform="rotate(90)" r=".092" cy="-34.901" cx="269.487" paint-order="stroke fill markers"/><circle transform="rotate(90)" r=".229" cy="-19.108" cx="277.501" paint-order="stroke fill markers"/><circle transform="rotate(90)" cx="276.967" cy="-28.654" r=".214" paint-order="stroke fill markers"/><circle transform="rotate(90)" r=".098" cy="-23.042" cx="273.314" paint-order="stroke fill markers"/><circle transform="rotate(90)" r=".215" cy="-20.126" cx="264.703" paint-order="stroke fill markers"/><circle transform="rotate(90)" cx="271.883" cy="-34.711" r=".214" paint-order="stroke fill markers"/><circle transform="rotate(90)" r=".219" cy="-26.422" cx="268.225" paint-order="stroke fill markers"/><circle transform="rotate(90)" cx="275.03" cy="-30.759" r=".185" paint-order="stroke fill markers"/><circle transform="rotate(90)" r=".104" cy="-17.981" cx="263.63" paint-order="stroke fill markers"/><circle cx="72.33" cy="288.549" r=".284" paint-order="stroke fill markers"/><circle r=".231" cy="247.324" cx="2.499" paint-order="stroke fill markers"/><circle r=".104" cy="232.782" cx="13.736" paint-order="stroke fill markers"/><circle cx="14.898" cy="236.911" r=".209" paint-order="stroke fill markers"/><circle r=".218" cy="242.383" cx="8.804" paint-order="stroke fill markers"/><circle cx="18.288" cy="238.279" r=".184" paint-order="stroke fill markers"/><circle r=".106" cy="246.947" cx="17.505" paint-order="stroke fill markers"/><circle cx="19.684" cy="248.236" r=".273" paint-order="stroke fill markers"/><circle r=".09" cy="253.336" cx="10.912" paint-order="stroke fill markers"/><circle r=".095" cy="242.762" cx="13.266" paint-order="stroke fill markers"/><circle cx="16.177" cy="243.554" r=".206" paint-order="stroke fill markers"/><circle r=".107" cy="244.084" cx="8.934" paint-order="stroke fill markers"/><circle r=".093" cy="238.022" cx="6.761" paint-order="stroke fill markers"/><circle cx="16.912" cy="238.99" r=".292" paint-order="stroke fill markers"/></g></svg>