<svg xmlns="http://www.w3.org/2000/svg" width="456.239" height="500" viewBox="0 0 120.713 132.292"><g fill="none" stroke="#d1d1d1" stroke-width=".559" stroke-linecap="round"><path transform="matrix(.80215 0 -.35675 .71846 -13.017 -134.953)" paint-order="stroke fill markers" d="M113.901 188.116h11.339v30.596h-11.339z"/><path transform="matrix(.80215 0 -.35675 -.71846 -13.017 -134.953)" paint-order="stroke fill markers" d="M-80.639-249.308H-69.3v30.596h-11.339z"/><path transform="matrix(-.80215 0 .35675 .71846 -13.017 -134.953)" paint-order="stroke fill markers" d="M30.746 188.116h11.339v30.596H30.746z"/><path transform="matrix(-.80215 0 .35675 -.71846 -13.017 -134.953)" paint-order="stroke fill markers" d="M-163.794-249.308h11.339v30.596h-11.339z"/><path transform="matrix(.80215 0 -.35675 .71846 -13.017 -47.026)" paint-order="stroke fill markers" d="M113.901 188.116h11.339v30.596h-11.339z"/><path transform="matrix(.80215 0 -.35675 -.71846 -13.017 -47.026)" paint-order="stroke fill markers" d="M-80.639-249.308H-69.3v30.596h-11.339z"/><path transform="matrix(-.80215 0 .35675 .71846 -13.017 -47.026)" paint-order="stroke fill markers" d="M30.746 188.116h11.339v30.596H30.746z"/><path transform="matrix(-.80215 0 .35675 -.71846 -13.017 -47.026)" paint-order="stroke fill markers" d="M-163.794-249.308h11.339v30.596h-11.339z"/><path transform="matrix(.80215 0 -.35675 .71846 -13.017 -90.99)" paint-order="stroke fill markers" d="M113.901 188.116h11.339v30.596h-11.339z"/><path transform="matrix(.80215 0 -.35675 -.71846 -13.017 -90.99)" paint-order="stroke fill markers" d="M-80.639-249.308H-69.3v30.596h-11.339z"/><path transform="matrix(-.80215 0 .35675 .71846 -13.017 -90.99)" paint-order="stroke fill markers" d="M30.746 188.116h11.339v30.596H30.746z"/><path transform="matrix(-.80215 0 .35675 -.71846 -13.017 -90.99)" paint-order="stroke fill markers" d="M-163.794-249.308h11.339v30.596h-11.339z"/><g><path transform="matrix(.80215 0 -.35675 .71846 27.005 -134.953)" paint-order="stroke fill markers" d="M113.901 188.116h11.339v30.596h-11.339z"/><path transform="matrix(.80215 0 -.35675 -.71846 27.005 -134.953)" paint-order="stroke fill markers" d="M-80.639-249.308H-69.3v30.596h-11.339z"/><path transform="matrix(-.80215 0 .35675 .71846 27.005 -134.953)" paint-order="stroke fill markers" d="M30.746 188.116h11.339v30.596H30.746z"/><path transform="matrix(-.80215 0 .35675 -.71846 27.005 -134.953)" paint-order="stroke fill markers" d="M-163.794-249.308h11.339v30.596h-11.339z"/></g><g><path transform="matrix(.80215 0 -.35675 .71846 27.005 -47.026)" paint-order="stroke fill markers" d="M113.901 188.116h11.339v30.596h-11.339z"/><path transform="matrix(.80215 0 -.35675 -.71846 27.005 -47.026)" paint-order="stroke fill markers" d="M-80.639-249.308H-69.3v30.596h-11.339z"/><path transform="matrix(-.80215 0 .35675 .71846 27.005 -47.026)" paint-order="stroke fill markers" d="M30.746 188.116h11.339v30.596H30.746z"/><path transform="matrix(-.80215 0 .35675 -.71846 27.005 -47.026)" paint-order="stroke fill markers" d="M-163.794-249.308h11.339v30.596h-11.339z"/></g><g><path transform="matrix(.80215 0 -.35675 .71846 27.005 -90.99)" paint-order="stroke fill markers" d="M113.901 188.116h11.339v30.596h-11.339z"/><path transform="matrix(.80215 0 -.35675 -.71846 27.005 -90.99)" paint-order="stroke fill markers" d="M-80.639-249.308H-69.3v30.596h-11.339z"/><path transform="matrix(-.80215 0 .35675 .71846 27.005 -90.99)" paint-order="stroke fill markers" d="M30.746 188.116h11.339v30.596H30.746z"/><path transform="matrix(-.80215 0 .35675 -.71846 27.005 -90.99)" paint-order="stroke fill markers" d="M-163.794-249.308h11.339v30.596h-11.339z"/></g><g><path transform="matrix(.80215 0 -.35675 .71846 67.027 -134.953)" paint-order="stroke fill markers" d="M113.901 188.116h11.339v30.596h-11.339z"/><path transform="matrix(.80215 0 -.35675 -.71846 67.027 -134.953)" paint-order="stroke fill markers" d="M-80.639-249.308H-69.3v30.596h-11.339z"/><path transform="matrix(-.80215 0 .35675 .71846 67.027 -134.953)" paint-order="stroke fill markers" d="M30.746 188.116h11.339v30.596H30.746z"/><path transform="matrix(-.80215 0 .35675 -.71846 67.027 -134.953)" paint-order="stroke fill markers" d="M-163.794-249.308h11.339v30.596h-11.339z"/></g><g><path transform="matrix(.80215 0 -.35675 .71846 67.027 -47.026)" paint-order="stroke fill markers" d="M113.901 188.116h11.339v30.596h-11.339z"/><path transform="matrix(.80215 0 -.35675 -.71846 67.027 -47.026)" paint-order="stroke fill markers" d="M-80.639-249.308H-69.3v30.596h-11.339z"/><path transform="matrix(-.80215 0 .35675 .71846 67.027 -47.026)" paint-order="stroke fill markers" d="M30.746 188.116h11.339v30.596H30.746z"/><path transform="matrix(-.80215 0 .35675 -.71846 67.027 -47.026)" paint-order="stroke fill markers" d="M-163.794-249.308h11.339v30.596h-11.339z"/></g><g><path transform="matrix(.80215 0 -.35675 .71846 67.027 -90.99)" paint-order="stroke fill markers" d="M113.901 188.116h11.339v30.596h-11.339z"/><path transform="matrix(.80215 0 -.35675 -.71846 67.027 -90.99)" paint-order="stroke fill markers" d="M-80.639-249.308H-69.3v30.596h-11.339z"/><path transform="matrix(-.80215 0 .35675 .71846 67.027 -90.99)" paint-order="stroke fill markers" d="M30.746 188.116h11.339v30.596H30.746z"/><path transform="matrix(-.80215 0 .35675 -.71846 67.027 -90.99)" paint-order="stroke fill markers" d="M-163.794-249.308h11.339v30.596h-11.339z"/></g></g></svg>