<svg xmlns="http://www.w3.org/2000/svg" width="235.244" height="235.336" viewBox="0 0 62.242 62.266"><g stroke="#333" stroke-width=".265" stroke-opacity=".2" fill="none" stroke-linecap="round"><g transform="matrix(.96164 -.26863 .26926 .95938 -1.317 13.17)"><path d="M7.21.15a2.244 2.244 0 0 1 2.188.916A2.244 2.244 0 0 1 9.875.93a2.244 2.244 0 0 1 2.577 1.854 2.244 2.244 0 0 1-.386 1.66 2.244 2.244 0 0 1 .318.836 2.244 2.244 0 0 1-1.854 2.577 2.244 2.244 0 0 1-1.261-.16 2.244 2.244 0 0 1-1.427.863 2.244 2.244 0 0 1-1.852-.54 2.244 2.244 0 0 1-1.512.983A2.244 2.244 0 0 1 2.006 7.55 2.244 2.244 0 0 1 .13 5.694a2.244 2.244 0 0 1 1.853-2.576 2.244 2.244 0 0 1 .574-.018A2.244 2.244 0 0 1 4.435.973a2.244 2.244 0 0 1 1.263.16A2.244 2.244 0 0 1 7.21.15z" paint-order="stroke fill markers"/><circle transform="rotate(-12.453)" r=".722" cy="12.74" cx="-.166" paint-order="stroke fill markers"/><circle transform="rotate(-12.453)" r=".903" cy="11.369" cx="2.787" paint-order="stroke fill markers"/><g transform="matrix(.50452 .0147 -.0147 .50452 -13.96 -38.504)" stroke-width=".526"><path d="M45.266 113.487a4.446 4.446 0 0 1 4.388 1.688 4.446 4.446 0 0 1 .937-.296 4.446 4.446 0 0 1 5.209 3.522 4.446 4.446 0 0 1-.668 3.31 4.446 4.446 0 0 1 .677 1.638 4.446 4.446 0 0 1-3.522 5.209 4.446 4.446 0 0 1-2.507-.243 4.446 4.446 0 0 1-2.775 1.79 4.446 4.446 0 0 1-3.7-.962 4.446 4.446 0 0 1-2.938 2.035 4.446 4.446 0 0 1-4.978-2.738 4.446 4.446 0 0 1-3.823-3.564 4.446 4.446 0 0 1 3.522-5.209 4.446 4.446 0 0 1 1.135-.069 4.446 4.446 0 0 1 3.597-4.321 4.446 4.446 0 0 1 2.51.244 4.446 4.446 0 0 1 2.936-2.034z" paint-order="stroke fill markers"/><circle cx="1.997" cy="142.972" r="1.431" transform="rotate(-14.122)" paint-order="stroke fill markers"/><circle cx="7.846" cy="140.257" r="1.789" transform="rotate(-14.122)" paint-order="stroke fill markers"/></g><g transform="matrix(.50452 .0147 -.0147 .50452 -13.96 -19.235)" stroke-width=".526"><path d="M45.266 113.487a4.446 4.446 0 0 1 4.388 1.688 4.446 4.446 0 0 1 .937-.296 4.446 4.446 0 0 1 5.209 3.522 4.446 4.446 0 0 1-.668 3.31 4.446 4.446 0 0 1 .677 1.638 4.446 4.446 0 0 1-3.522 5.209 4.446 4.446 0 0 1-2.507-.243 4.446 4.446 0 0 1-2.775 1.79 4.446 4.446 0 0 1-3.7-.962 4.446 4.446 0 0 1-2.938 2.035 4.446 4.446 0 0 1-4.978-2.738 4.446 4.446 0 0 1-3.823-3.564 4.446 4.446 0 0 1 3.522-5.209 4.446 4.446 0 0 1 1.135-.069 4.446 4.446 0 0 1 3.597-4.321 4.446 4.446 0 0 1 2.51.244 4.446 4.446 0 0 1 2.936-2.034z" paint-order="stroke fill markers"/><circle transform="rotate(-14.122)" r="1.431" cy="142.972" cx="1.997" paint-order="stroke fill markers"/><circle transform="rotate(-14.122)" r="1.789" cy="140.257" cx="7.846" paint-order="stroke fill markers"/></g></g><g transform="matrix(.96164 -.26863 .26926 .95938 -.956 13.068)"><path d="M27.377.15a2.244 2.244 0 0 1 2.19.916 2.244 2.244 0 0 1 .476-.136 2.244 2.244 0 0 1 2.577 1.854 2.244 2.244 0 0 1-.386 1.66 2.244 2.244 0 0 1 .318.836 2.244 2.244 0 0 1-1.854 2.577 2.244 2.244 0 0 1-1.261-.16 2.244 2.244 0 0 1-1.427.863 2.244 2.244 0 0 1-1.852-.54 2.244 2.244 0 0 1-1.512.983 2.244 2.244 0 0 1-2.472-1.454 2.244 2.244 0 0 1-1.876-1.855 2.244 2.244 0 0 1 1.853-2.576 2.244 2.244 0 0 1 .574-.018A2.244 2.244 0 0 1 24.603.973a2.244 2.244 0 0 1 1.263.16A2.244 2.244 0 0 1 27.377.15z" paint-order="stroke fill markers"/><circle cx="19.528" cy="17.089" r=".722" transform="rotate(-12.453)" paint-order="stroke fill markers"/><circle cx="22.48" cy="15.718" r=".903" transform="rotate(-12.453)" paint-order="stroke fill markers"/><g transform="matrix(.50452 .0147 -.0147 .50452 6.208 -38.504)" stroke-width=".526"><path d="M45.266 113.487a4.446 4.446 0 0 1 4.388 1.688 4.446 4.446 0 0 1 .937-.296 4.446 4.446 0 0 1 5.209 3.522 4.446 4.446 0 0 1-.668 3.31 4.446 4.446 0 0 1 .677 1.638 4.446 4.446 0 0 1-3.522 5.209 4.446 4.446 0 0 1-2.507-.243 4.446 4.446 0 0 1-2.775 1.79 4.446 4.446 0 0 1-3.7-.962 4.446 4.446 0 0 1-2.938 2.035 4.446 4.446 0 0 1-4.978-2.738 4.446 4.446 0 0 1-3.823-3.564 4.446 4.446 0 0 1 3.522-5.209 4.446 4.446 0 0 1 1.135-.069 4.446 4.446 0 0 1 3.597-4.321 4.446 4.446 0 0 1 2.51.244 4.446 4.446 0 0 1 2.936-2.034z" paint-order="stroke fill markers"/><circle transform="rotate(-14.122)" r="1.431" cy="142.972" cx="1.997" paint-order="stroke fill markers"/><circle transform="rotate(-14.122)" r="1.789" cy="140.257" cx="7.846" paint-order="stroke fill markers"/></g><g transform="matrix(.50452 .0147 -.0147 .50452 6.208 -19.235)" stroke-width=".526"><path d="M45.266 113.487a4.446 4.446 0 0 1 4.388 1.688 4.446 4.446 0 0 1 .937-.296 4.446 4.446 0 0 1 5.209 3.522 4.446 4.446 0 0 1-.668 3.31 4.446 4.446 0 0 1 .677 1.638 4.446 4.446 0 0 1-3.522 5.209 4.446 4.446 0 0 1-2.507-.243 4.446 4.446 0 0 1-2.775 1.79 4.446 4.446 0 0 1-3.7-.962 4.446 4.446 0 0 1-2.938 2.035 4.446 4.446 0 0 1-4.978-2.738 4.446 4.446 0 0 1-3.823-3.564 4.446 4.446 0 0 1 3.522-5.209 4.446 4.446 0 0 1 1.135-.069 4.446 4.446 0 0 1 3.597-4.321 4.446 4.446 0 0 1 2.51.244 4.446 4.446 0 0 1 2.936-2.034z" paint-order="stroke fill markers"/><circle cx="1.997" cy="142.972" r="1.431" transform="rotate(-14.122)" paint-order="stroke fill markers"/><circle cx="7.846" cy="140.257" r="1.789" transform="rotate(-14.122)" paint-order="stroke fill markers"/></g></g><g transform="matrix(.96164 -.26863 .26926 .95938 -.595 12.967)"><path d="M47.545.15a2.244 2.244 0 0 1 2.19.916A2.244 2.244 0 0 1 50.21.93a2.244 2.244 0 0 1 2.577 1.854 2.244 2.244 0 0 1-.386 1.66 2.244 2.244 0 0 1 .318.836 2.244 2.244 0 0 1-1.854 2.577 2.244 2.244 0 0 1-1.261-.16 2.244 2.244 0 0 1-1.427.863 2.244 2.244 0 0 1-1.852-.54 2.244 2.244 0 0 1-1.512.983 2.244 2.244 0 0 1-2.472-1.454 2.244 2.244 0 0 1-1.876-1.855 2.244 2.244 0 0 1 1.853-2.576 2.244 2.244 0 0 1 .574-.018A2.244 2.244 0 0 1 44.771.973a2.244 2.244 0 0 1 1.263.16A2.244 2.244 0 0 1 47.545.15z" paint-order="stroke fill markers"/><circle transform="rotate(-12.453)" r=".722" cy="21.438" cx="39.221" paint-order="stroke fill markers"/><circle transform="rotate(-12.453)" r=".903" cy="20.067" cx="42.174" paint-order="stroke fill markers"/><g transform="matrix(.50452 .0147 -.0147 .50452 26.376 -38.504)" stroke-width=".526"><path d="M45.266 113.487a4.446 4.446 0 0 1 4.388 1.688 4.446 4.446 0 0 1 .937-.296 4.446 4.446 0 0 1 5.209 3.522 4.446 4.446 0 0 1-.668 3.31 4.446 4.446 0 0 1 .677 1.638 4.446 4.446 0 0 1-3.522 5.209 4.446 4.446 0 0 1-2.507-.243 4.446 4.446 0 0 1-2.775 1.79 4.446 4.446 0 0 1-3.7-.962 4.446 4.446 0 0 1-2.938 2.035 4.446 4.446 0 0 1-4.978-2.738 4.446 4.446 0 0 1-3.823-3.564 4.446 4.446 0 0 1 3.522-5.209 4.446 4.446 0 0 1 1.135-.069 4.446 4.446 0 0 1 3.597-4.321 4.446 4.446 0 0 1 2.51.244 4.446 4.446 0 0 1 2.936-2.034z" paint-order="stroke fill markers"/><circle cx="1.997" cy="142.972" r="1.431" transform="rotate(-14.122)" paint-order="stroke fill markers"/><circle cx="7.846" cy="140.257" r="1.789" transform="rotate(-14.122)" paint-order="stroke fill markers"/></g><g transform="matrix(.50452 .0147 -.0147 .50452 26.376 -19.235)" stroke-width=".526"><path d="M45.266 113.487a4.446 4.446 0 0 1 4.388 1.688 4.446 4.446 0 0 1 .937-.296 4.446 4.446 0 0 1 5.209 3.522 4.446 4.446 0 0 1-.668 3.31 4.446 4.446 0 0 1 .677 1.638 4.446 4.446 0 0 1-3.522 5.209 4.446 4.446 0 0 1-2.507-.243 4.446 4.446 0 0 1-2.775 1.79 4.446 4.446 0 0 1-3.7-.962 4.446 4.446 0 0 1-2.938 2.035 4.446 4.446 0 0 1-4.978-2.738 4.446 4.446 0 0 1-3.823-3.564 4.446 4.446 0 0 1 3.522-5.209 4.446 4.446 0 0 1 1.135-.069 4.446 4.446 0 0 1 3.597-4.321 4.446 4.446 0 0 1 2.51.244 4.446 4.446 0 0 1 2.936-2.034z" paint-order="stroke fill markers"/><circle transform="rotate(-14.122)" r="1.431" cy="142.972" cx="1.997" paint-order="stroke fill markers"/><circle transform="rotate(-14.122)" r="1.789" cy="140.257" cx="7.846" paint-order="stroke fill markers"/></g></g></g></svg>