<svg xmlns="http://www.w3.org/2000/svg" width="100" height="100" viewBox="0 0 26.458 26.458"><path d="M13.23 2.646A10.583 10.583 0 0 0 2.645 13.229a10.583 10.583 0 0 0 10.583 10.583A10.583 10.583 0 0 0 23.812 13.23 10.583 10.583 0 0 0 13.23 2.646zm-.156 4.526h.378l7.12 3.629.188.289v4.38l-7.487 3.817-7.488-3.817v-4.38l.189-.29 7.1-3.619zm.378.385v3.995l2.823 1.439 3.919-1.997zm-.378.01l-6.722 3.427 3.918 1.997 2.804-1.43zm-6.912 3.716v3.802l3.73-1.901zm14.22 0l-3.73 1.9 3.73 1.901zm-7.11.563l-2.624 1.338 2.625 1.337 2.624-1.337zm-3.002 1.53l-3.918 1.998 6.731 3.43V14.81zm6.005 0l-2.813 1.434v3.995l6.732-3.431z" fill="#545454" paint-order="stroke fill markers"/></svg>