<svg xmlns="http://www.w3.org/2000/svg" width="100" height="100" viewBox="0 0 26.459 26.459"><g fill="none" stroke="#000"><path d="M23.813 13.23a10.583 10.583 0 0 1-10.584 10.583A10.583 10.583 0 0 1 2.646 13.229 10.583 10.583 0 0 1 13.229 2.646a10.583 10.583 0 0 1 10.584 10.583z" fill="#252525" stroke="none"/><path d="M14.227 11.672v5.745m0-14.43v5.745M5.907 7.33l8.32-4.343 8.318 4.343-8.319 4.342zm0 5.744l8.32-4.342 8.318 4.342-8.319 4.343zM5.644 7.33v5.744m8.583-1.402v5.745M22.81 7.33v5.744" transform="matrix(.8 0 0 .8 1.848 5.491)" stroke="#fff" stroke-width=".504"/></g></svg>