<svg xmlns="http://www.w3.org/2000/svg" width="100" height="100" viewBox="0 0 26.458 26.458"><path d="M13.229 2.646A10.583 10.583 0 0 0 2.646 13.229a10.583 10.583 0 0 0 10.583 10.583A10.583 10.583 0 0 0 23.812 13.23 10.583 10.583 0 0 0 13.23 2.646zM7.927 7.953a.544.544 0 0 1 .038 0 .544.544 0 0 1 .374.92c-1.364 1.465-2.046 3.075-2.06 4.696-.015 1.62.636 3.278 2.063 4.843a.544.544 0 1 1-.803.733c-1.577-1.728-2.365-3.663-2.348-5.585.017-1.922.838-3.803 2.352-5.429a.544.544 0 0 1 .384-.178zm10.565 0a.544.544 0 0 1 .039 0 .544.544 0 0 1 .384.178c1.514 1.626 2.334 3.507 2.352 5.429.017 1.922-.772 3.857-2.348 5.586a.544.544 0 1 1-.803-.734c1.427-1.565 2.078-3.222 2.063-4.843-.014-1.62-.696-3.231-2.06-4.696a.544.544 0 0 1 .373-.92zm-7.055.4c.502-.001 1.913.247 2.693 2.913.72 2.459.587-.564.483-.882 0 0 4.268 4.663-.575 5.892-.187.02-.365.034-.536.044a5.06 5.06 0 0 1-.578.02c-4.124.028-2.806-2.783-1.717-4.425 1.334-2.01-.068-3.597.047-3.55 0 0 .067-.012.183-.013zm1.487 7.986c.182-.001.374-.006.578-.019l.122-.01c2.367-.6.28-2.88.28-2.88.052.155.117 1.633-.235.43-.469-1.603-1.406-1.417-1.406-1.417-.056-.023.63.752-.022 1.735-.519.782-1.144 2.105.683 2.161zm-3.44.871h7.49a.465.465 0 1 1 0 .93h-7.49a.465.465 0 1 1 0-.93z" fill="#006400"/></svg>