<svg xmlns="http://www.w3.org/2000/svg" width="100" height="100"><path d="M50 10a40 40 0 0 0-40 40 40 40 0 0 0 40 40 40 40 0 0 0 40-40 40 40 0 0 0-40-40zM29.96 30.058a2.056 2.056 0 0 1 .145 0 2.056 2.056 0 0 1 1.412 3.478c-5.156 5.536-7.731 11.624-7.786 17.75-.054 6.125 2.404 12.39 7.8 18.304a2.056 2.056 0 1 1-3.036 2.77c-5.96-6.53-8.939-13.846-8.875-21.11.065-7.264 3.166-14.372 8.89-20.517a2.056 2.056 0 0 1 1.45-.675zm39.932 0a2.056 2.056 0 0 1 .147 0 2.056 2.056 0 0 1 1.451.675c5.724 6.144 8.824 13.253 8.89 20.517.064 7.264-2.916 14.58-8.875 21.112a2.056 2.056 0 1 1-3.036-2.772c5.396-5.914 7.854-12.179 7.8-18.304-.055-6.126-2.63-12.214-7.786-17.75a2.056 2.056 0 0 1 1.409-3.478zm-26.666 1.51c1.898-.002 7.233.936 10.18 11.011 2.718 9.294 2.218-2.13 1.825-3.331 0 0 16.132 17.624-2.175 22.269-.706.072-1.376.126-2.023.167a19.127 19.127 0 0 1-2.186.072c-15.588.107-10.605-10.515-6.488-16.722 5.04-7.597-.259-13.594.175-13.415 0 0 .255-.05.692-.051zm5.621 30.187c.69-.005 1.412-.024 2.186-.072.153-.013.3-.022.459-.038 8.949-2.27 1.062-10.888 1.062-10.888.192.588.439 6.173-.89 1.63-1.773-6.062-5.315-5.357-5.315-5.357-.213-.088 2.378 2.843-.085 6.556-1.96 2.955-4.323 7.956 2.583 8.17zm-13.001 3.293h28.308a1.758 1.758 0 1 1 0 3.517H35.846a1.758 1.758 0 1 1 0-3.517z" fill="#006400"/></svg>