<svg xmlns="http://www.w3.org/2000/svg" width="100" height="100" viewBox="0 0 26.458 26.458"><path d="M13.23 2.646A10.584 10.584 0 0 0 2.646 13.23a10.584 10.584 0 0 0 10.076 10.558c-1.444-.133-2.538-.808-2.538-1.627V20.23c-.608-.074-1.128-.313-1.352-.851-.972-2.323-2.348-1.247-2.229-2.14 1.527-.766 2.086.841 3.581 1.687v-.475c0-.683.292-1.302.77-1.774-3.284-.555-4.063-2.297-4.063-3.989 0-.852.29-1.893.976-2.818-.15-1.354-.045-2.907.752-3.26a1.06 1.06 0 0 1 .469-.08c.68.025 1.564.546 2.356 1.169a9.27 9.27 0 0 1 1.933-.193c.712 0 1.354.07 1.934.193.989-.779 2.125-1.397 2.824-1.088.797.352.901 1.905.752 3.259.685.925.976 1.966.976 2.818 0 1.734-.53 3.521-4.18 4.03.455.466.73 1.07.73 1.733v3.711c0 .83-1.122 1.51-2.593 1.631a10.584 10.584 0 0 0 9.992-10.563A10.584 10.584 0 0 0 13.23 2.646zm.59 21.146a10.584 10.584 0 0 1-.586.02h.122c.159 0 .312-.008.464-.02zm-.586.02h-.018a10.584 10.584 0 0 0 .013 0 10.584 10.584 0 0 0 .005 0zm-.018 0a10.584 10.584 0 0 1-.494-.024c.16.014.326.024.494.024z" fill="#242424"/></svg>