<svg xmlns="http://www.w3.org/2000/svg" width="100" height="100" viewBox="0 0 26.458 26.458"><path d="M13.23 2.646A10.583 10.583 0 0 0 2.645 13.229a10.583 10.583 0 0 0 10.583 10.584 10.583 10.583 0 0 0 10.584-10.584A10.583 10.583 0 0 0 13.229 2.646zM11.81 6.77c.024-.002.05 0 .078.006l2.848.757c.227.06.85.148.85.33v.022c0 .018.005.036.008.053.54.19 1.008.415 1.375.667l2.703-1.54s-.344.388-.344.63c0 .244.344.39.344.632 0 .243-.344.389-.344.632s.344.388.344.63c0 .244-.344.39-.344.632 0 .243.344.389.344.632s-.344.388-.344.631.344.631.344.631l-2.31-1.317c-.966.944-3.302 1.613-5.724 1.613-2.363 0-3.901-.636-4.53-1.544a.532.533 0 0 0 .116.014.532.533 0 0 0 .532-.533.532.533 0 0 0-.532-.533.532.533 0 0 0-.427.217c-.006-.057-.013-.114-.013-.171 0-1.347 1.545-2.447 4.446-2.541l.233-.213c.133-.122.183-.324.347-.337zm.142 7.276a.244.244 0 0 1 .078.007l2.848.756c.227.06.85.148.85.33v.022c0 .018.005.036.009.053.539.19 1.007.415 1.374.667l2.703-1.54s-.344.388-.344.63c0 .244.344.39.344.632 0 .243-.344.389-.344.632s.344.388.344.63c0 .244-.344.39-.344.632 0 .243.344.389.344.632s-.344.388-.344.631.344.631.344.631l-2.311-1.317c-.966.944-3.302 1.613-5.724 1.613-2.363 0-3.9-.636-4.53-1.544a.532.533 0 0 0 .117.014.532.533 0 0 0 .532-.533.532.533 0 0 0-.532-.533.532.533 0 0 0-.427.217c-.006-.057-.013-.114-.013-.171 0-1.347 1.545-2.447 4.446-2.541l.233-.213c.133-.122.183-.324.347-.337z" fill="#923df2" paint-order="stroke fill markers"/></svg>