<svg xmlns="http://www.w3.org/2000/svg" width="100" height="100" viewBox="0 0 26.458 26.458"><path d="M15.344 14.704a3.602 4.554 0 0 0-3.602 4.554 3.602 4.554 0 0 0 3.602 4.555 3.602 4.554 0 0 0 3.602-4.555 3.602 4.554 0 0 0-3.602-4.554zm.068 1.242a2.613 3.312 0 0 1 2.613 3.312h-.858a1.755 2.224 0 0 0-1.755-2.224z" paint-order="stroke fill markers"/><path paint-order="stroke fill markers" d="M7.699 19.258h5.579v1.38h-5.58zM18.025 19.258C19.851 6.47 21.442 3.807 22.99 3.075l.824.895c-2.485 1.077-3.927 8.327-5.37 17.11zM4.279 18.829c2.096-12.79 3.924-15.452 5.7-16.183l.946.894c-2.854 1.077-4.51 8.327-6.166 17.11z"/><path d="M6.248 14.704a3.602 4.554 0 0 0-3.602 4.554 3.602 4.554 0 0 0 3.602 4.555 3.602 4.554 0 0 0 3.602-4.555 3.602 4.554 0 0 0-3.602-4.554zm.067 1.242a2.613 3.312 0 0 1 2.614 3.312H8.07a1.755 2.224 0 0 0-1.755-2.224z" paint-order="stroke fill markers"/></svg>