<svg xmlns="http://www.w3.org/2000/svg" width="16" height="16" viewBox="0 0 4.233 4.233"><path d="M1.436 3.416h1.057c.06 0 .105.023.107.052l.058.714c.002.028-.049.051-.108.051H1.379c-.06 0-.11-.023-.108-.051l.057-.714c.002-.029.048-.052.108-.052zM1.293.58a.121.121 0 0 0-.122.127l.15 2.507c.005.07.055.127.123.127h1.024c.068 0 .118-.057.122-.127L2.74.707A.121.121 0 0 0 2.62.58zm.13.15h1.066c.054 0 .101.051.098.114l-.121 2.234c-.004.062-.044.112-.098.112h-.824c-.054 0-.095-.05-.098-.112L1.325.844C1.322.78 1.369.73 1.423.73zM1.292.063c.507-.098.926-.07 1.314 0 .066.012.121.048.121.106v.208c0 .058-.054.105-.12.105H1.291c-.067 0-.12-.047-.12-.105V.169c0-.058.055-.093.12-.106z" fill="#252525"/><path d="M1.292.063l-.366.07.38.294z" fill="#252525"/><path d="M191.918 168.654s12.794-6.623 12.028-.3c-1.227 10.128 0 0-2.02 19.18-1.093 6.146-11.232 5.709-11.232 5.709z" fill="none" stroke="#252525" stroke-width="1.975" transform="matrix(.05077 0 0 .05273 -7.1 -7.565)"/></svg>