<svg xmlns="http://www.w3.org/2000/svg" width="100" height="100" viewBox="0 0 26.458 26.458"><g transform="matrix(.4025 0 0 .39139 -7.136 -3.668)" fill="none" stroke="#252525"><circle transform="rotate(135)" r="10" cy="-70.931" cx=".091"/><path d="M57.583 56.7a10 10 0 0 1 13.66-3.66 10 10 0 0 1 3.062 8.696 10 10 0 0 0 3.928 9.196 10 10 0 0 1-1.133 3.964 10 10 0 0 0 5.464-1.464 10 10 0 0 0-1.464-5.464 10 10 0 0 1-2.867 2.964M51.837 40.409a10 10 0 0 1-10-10 10 10 0 0 1 6-7 10 10 0 0 0 6-8 10 10 0 0 1 4-1 10 10 0 0 0-4-4 10 10 0 0 0-4 4 10 10 0 0 1 4 1" stroke-width="1.788"/><circle cx="-68.366" cy="-18.543" r="10" transform="rotate(-150)" stroke-width="1.788"/><path d="M41.659 55.872a10 10 0 0 1 0 14.142 10 10 0 0 1-9.193.707 10 10 0 0 0-9.9 1.414 10 10 0 0 1-3.535-2.12 10 10 0 0 0 0 5.656 10 10 0 0 0 5.657 0 10 10 0 0 1-2.121-3.536" stroke-width="1.788"/></g></svg>