<svg xmlns="http://www.w3.org/2000/svg" viewBox="0 0 99.999999 100" width="100" height="100"><path d="M50 0A50 50 0 0 0 0 50a50 50 0 0 0 50 50 50 50 0 0 0 50-50A50 50 0 0 0 50 0zM24.951 25.072a2.57 2.57 0 0 1 .18 0 2.57 2.57 0 0 1 1.765 4.348c-6.445 6.92-9.664 14.53-9.732 22.187-.068 7.657 3.005 15.488 9.75 22.881a2.57 2.57 0 1 1-3.795 3.463c-7.45-8.164-11.174-17.309-11.094-26.388.081-9.08 3.958-17.966 11.112-25.647a2.57 2.57 0 0 1 1.814-.844zm49.914 0a2.57 2.57 0 0 1 .184 0 2.57 2.57 0 0 1 1.814.844c7.154 7.68 11.03 16.567 11.112 25.646.08 9.08-3.645 18.225-11.094 26.39a2.57 2.57 0 1 1-3.795-3.464c6.745-7.393 9.818-15.224 9.75-22.88-.068-7.658-3.287-15.268-9.732-22.188a2.57 2.57 0 0 1 1.761-4.348zM41.533 26.96c2.372-.003 9.041 1.17 12.725 13.764 3.397 11.617 2.772-2.662 2.281-4.164 0 0 20.165 22.03-2.719 27.836-.883.09-1.72.158-2.529.209a23.909 23.909 0 0 1-2.732.09c-19.485.134-13.256-13.144-8.11-20.903 6.3-9.496-.324-16.992.219-16.768 0 0 .318-.063.865-.064zm7.026 37.734c.863-.006 1.765-.03 2.732-.09.192-.016.375-.028.574-.048 11.186-2.838 1.328-13.61 1.328-13.61.24.735.548 7.716-1.113 2.037-2.216-7.577-6.644-6.695-6.644-6.695-.266-.11 2.973 3.553-.106 8.195-2.449 3.693-5.404 9.944 3.229 10.211zM32.307 68.81h35.386a2.198 2.198 0 1 1 0 4.396H32.307a2.198 2.198 0 1 1 0-4.396z"/></svg>