<svg xmlns="http://www.w3.org/2000/svg" width="100" height="100" viewBox="0 0 26.458334 26.458311"><path d="M13.23 0A13.23 13.23 0 0 0 0 13.23a13.23 13.23 0 0 0 12.595 13.197c-1.805-.166-3.172-1.009-3.172-2.033V21.98c-.761-.093-1.41-.391-1.69-1.064-1.215-2.904-2.935-1.559-2.786-2.674 1.908-.958 2.607 1.051 4.476 2.108v-.594c0-.853.365-1.627.963-2.217-4.106-.694-5.08-2.872-5.08-4.986 0-1.066.363-2.367 1.22-3.523-.187-1.692-.056-3.634.94-4.074.176-.077.373-.108.586-.1.85.03 1.956.682 2.945 1.46a11.587 11.587 0 0 1 2.417-.241c.89 0 1.692.088 2.417.242 1.236-.974 2.656-1.747 3.53-1.361.996.44 1.127 2.382.94 4.074.857 1.156 1.22 2.457 1.22 3.523 0 2.167-.663 4.401-5.224 5.036.568.583.912 1.338.912 2.167v4.639c0 1.037-1.403 1.888-3.242 2.039a13.23 13.23 0 0 0 12.491-13.204A13.23 13.23 0 0 0 13.23 0zm.737 26.433a13.23 13.23 0 0 1-.732.025h.153c.198 0 .39-.01.579-.025zm-.732.025h-.023a13.23 13.23 0 0 0 .017 0 13.23 13.23 0 0 0 .006 0zm-.023 0a13.23 13.23 0 0 1-.617-.031c.201.018.407.03.617.03z"/></svg>