<svg xmlns="http://www.w3.org/2000/svg" width="100" height="100" viewBox="0 0 26.458 26.458"><path d="M7.439 5.191c-1.32.032-2.516.32-3.564 1.249C1.48 8.562 0 11.494 0 14.732c0 6.476 5.923 11.726 13.229 11.726 7.306 0 13.229-5.25 13.229-11.726 0-3.238-1.48-6.17-3.875-8.292-2.393-2.122-5.837-.903-9.49-.903-2.055 0-3.957-.386-5.654-.346zm-.2 8.234c.317 0 .577.138.78.415.202.275.304.608.304 1 0 .2-.03.385-.088.556-.058.169-.197.403-.417.704-.174.237-.511.661-1.013 1.273h1.1c.061-.07.118-.105.172-.105.077 0 .138.036.182.109.046.073.07.197.07.373v.345H6.036v-.764c.906-1.072 1.453-1.762 1.641-2.07a.87.87 0 0 0 .142-.446.718.718 0 0 0-.162-.465.514.514 0 0 0-.426-.204c-.18 0-.33.075-.45.226a.939.939 0 0 0-.15.355.452.452 0 0 1-.095.211.191.191 0 0 1-.147.063c-.068 0-.128-.035-.18-.105a.42.42 0 0 1-.072-.246c0-.141.044-.317.134-.528.092-.211.224-.38.398-.507a.95.95 0 0 1 .569-.19zm9.068 0a.73.73 0 0 1 .51.19c.142.127.275.363.4.707.128.343.192.708.192 1.095v.792c0 .469-.095.918-.285 1.347-.188.43-.457.644-.809.644a.742.742 0 0 1-.515-.19c-.14-.128-.272-.364-.398-.707a3.204 3.204 0 0 1-.186-1.094v-.792c0-.467.094-.915.282-1.345.188-.431.458-.647.81-.647zm3.013 0a.73.73 0 0 1 .51.19c.14.127.274.363.4.707.128.343.191.708.191 1.095v.792c0 .469-.095.918-.284 1.347-.189.43-.458.644-.81.644a.742.742 0 0 1-.515-.19c-.139-.128-.271-.364-.397-.707a3.204 3.204 0 0 1-.187-1.094v-.792c0-.467.094-.915.282-1.345.188-.431.458-.647.81-.647zm-9.96.116h1.538c.121 0 .208.034.258.102a.406.406 0 0 1 .079.26.415.415 0 0 1-.079.261c-.05.066-.137.099-.258.099H9.863v.858c.187-.084.356-.126.508-.126.31 0 .566.15.77.453.205.303.307.694.307 1.172 0 .493-.104.88-.311 1.162-.206.279-.523.418-.95.418-.376 0-.673-.102-.893-.306a.536.536 0 0 1-.19-.404c0-.097.024-.18.073-.25.05-.073.11-.11.179-.11.057 0 .119.04.186.12a.578.578 0 0 0 .211.162c.105.045.239.067.402.067.304 0 .512-.07.624-.208.11-.14.166-.355.166-.644 0-.284-.054-.507-.162-.668-.106-.162-.243-.243-.412-.243-.181 0-.388.084-.62.253-.053.04-.099.06-.138.06-.072 0-.132-.037-.181-.112a.539.539 0 0 1-.071-.292V13.54zm6.95.605c-.152 0-.276.09-.373.268-.145.27-.218.604-.218 1.003v.792c0 .394.076.736.23 1.027.085.162.207.243.366.243.15 0 .274-.09.37-.267.146-.27.219-.605.219-1.003v-.792c0-.392-.077-.735-.229-1.028-.086-.162-.208-.243-.365-.243zm3.012 0c-.152 0-.276.09-.372.268-.146.27-.22.604-.22 1.003v.792c0 .394.078.736.232 1.027.085.162.207.243.365.243.15 0 .274-.09.37-.267.146-.27.219-.605.219-1.003v-.792c0-.392-.076-.735-.228-1.028-.087-.162-.209-.243-.366-.243zm-6.022.757c.118 0 .21.046.277.137a.566.566 0 0 1 .101.342c0 .136-.034.25-.1.34a.325.325 0 0 1-.278.138.325.325 0 0 1-.277-.137.56.56 0 0 1-.1-.341c0-.136.033-.25.1-.342a.325.325 0 0 1 .277-.137zm.005 2.361c.118 0 .21.046.277.137.068.092.1.206.1.342 0 .136-.032.25-.1.341a.325.325 0 0 1-.277.137.324.324 0 0 1-.277-.137.563.563 0 0 1-.1-.341c0-.136.033-.25.1-.342a.324.324 0 0 1 .277-.137z" fill="#4d388d"/><g fill="#fff"><path d="M13.109 6.888S4.5 7.386 1.863 10.372C-1.308 13.964-.412-1.697 13.11 6.888z"/><path d="M13.109 6.888s8.472-.808 11.245 3.484c2.566 3.974 2.276-12.069-11.245-3.484zm-.293.06S3.526 1.466 1.07 5.462C-1.592 9.795 4.76-6.302 12.816 6.95z"/><path d="M13.165 6.948s9.77-5.473 12.768-1.798c1.708 2.094-4.713-11.452-12.768 1.8z"/><path d="M12.84 3.24s-9.027 3.884 0 6.772c9.029-2.888 0-6.772 0-6.772z"/></g><g fill="#4d388d"><path d="M13.109 5.83S4.5 6.328 1.863 9.314C-1.308 12.906-.412-2.755 13.11 5.83z"/><path d="M13.109 5.83s8.472-.808 11.245 3.484C26.92 13.288 26.63-2.755 13.109 5.83zm-.293.06S3.526.408 1.07 4.404C-1.592 8.737 4.76-7.36 12.816 5.891z"/><path d="M13.165 5.89s9.77-5.473 12.768-1.798C27.641 6.186 21.22-7.36 13.165 5.891z"/><path d="M12.84 2.182s-9.027 3.884 0 6.772c9.029-2.888 0-6.772 0-6.772z"/></g></svg>