<svg xmlns="http://www.w3.org/2000/svg" viewBox="0 0 99.999999 100" width="100" height="100"><path d="M46.615 89.115s42.098-6.269 42.85-56.054c0 0 10.9-3.089 10.526-5.403l-11.282-.387s10.526-4.632 10.148-8.877c0 0-11.652 5.789-13.908 2.7-1.346-2.591-29.34-22.713-37.212 13.607 0 0-32.325-5.402-40.22-24.701 0 0-1.504 34.349 14.286 33.962 0 0-11.655 1.157-21.803-8.878 0 0 2.63 18.142 26.312 21.227 0 0-15.412 6.563-16.917 2.318 0 0 10.152 12.348 24.812 8.873 0 0-17.29 18.142-31.95 15.441 0 0 22.177 10.035 44.354 6.172z"/></svg>