<svg xmlns="http://www.w3.org/2000/svg" width="100" height="100" viewBox="0 0 26.458 26.458"><path d="M13.23 0A13.23 13.23 0 0 0 0 13.23a13.23 13.23 0 0 0 13.23 13.228A13.23 13.23 0 0 0 26.457 13.23 13.23 13.23 0 0 0 13.23 0zm-7.3 6.357c1.356 3.315 6.91 4.244 6.91 4.244 1.353-6.24 6.163-2.784 6.394-2.338.387.53 2.39-.464 2.39-.464.064.73-1.744 1.525-1.744 1.525l1.938.067c.065.397-1.808.928-1.808.928-.13 8.554-7.362 9.63-7.362 9.63h-.001c-3.81.664-7.62-1.06-7.62-1.06 2.518.465 5.489-2.653 5.489-2.653-2.088.495-3.627-.865-4.098-1.35a.311.311 0 0 1-.165-.174s.068.075.165.175c.642.32 2.741-.574 2.741-.574-4.069-.53-4.52-3.647-4.52-3.647 1.743 1.725 3.745 1.526 3.745 1.526-2.712.066-2.454-5.835-2.454-5.835z" fill="#252525"/></svg>