<svg xmlns="http://www.w3.org/2000/svg" width="100" height="100" viewBox="0 0 26.458 26.458"><g transform="matrix(1.4689 0 0 1.26973 -76.455 -276.814)" fill="#4d388d"><path d="M62.84 218.013a7.031 7.031-.845 0 0-.7.055 7.031 7.031-.845 0 0-6.085 7.864 7.031 7.031-.845 0 0 7.865 6.085 7.031 7.031-.845 0 0 6.085-7.865 7.031 7.031-.845 0 0-7.164-6.139zm.036 1.302a5.73 5.73-1.46 0 1 5.837 5.002 5.73 5.73-1.46 0 1-4.958 6.408 5.73 5.73-1.46 0 1-6.408-4.958 5.73 5.73-1.46 0 1 4.958-6.408 5.73 5.73-1.46 0 1 .57-.044z"/><rect transform="rotate(40.076 -32.762 444.153) scale(.97437)" ry="1.667" rx="1.65" y="226.495" x="-103.641" height="11.76" width="2.138"/><path style="line-height:1.25;-inkscape-font-specification:'Lato Bold';font-variant-ligatures:normal;font-variant-position:normal;font-variant-caps:normal;font-variant-numeric:normal;font-variant-alternates:normal;font-feature-settings:normal;text-indent:0;text-align:start;text-decoration-line:none;text-decoration-style:solid;text-decoration-color:#000;text-transform:none;text-orientation:mixed;shape-padding:0;isolation:auto;mix-blend-mode:normal" d="M58.863 222.916c-.036 0-.081.001-.12.041-.04.04-.04.087-.04.113v.203c0 .024.002.055.024.092a.154.154 0 0 0 .12.069h.198c.062 0 .16.026.228.216l1.764 4.971a.38.38 0 0 0 .084.149.248.248 0 0 0 .174.074c.091 0 .168-.05.21-.106.043-.054.062-.111.077-.154v-.002L63 224.818l1.338 3.748c.02.058.043.119.086.174a.262.262 0 0 0 .201.104c.105 0 .19-.063.236-.127.048-.064.071-.133.09-.178.084-.202.512-1.35.938-2.492l.89-2.393c.066-.163.187-.22.278-.22h.148c.042 0 .097-.012.129-.057.031-.045.023-.08.023-.096v-.195c0-.032.006-.07-.027-.115a.14.14 0 0 0-.066-.047.187.187 0 0 0-.059-.008c-.044 0-.11.006-.228.012a9.795 9.795 0 0 1-.5.011c-.483 0-.742-.023-.84-.023-.042 0-.09.01-.125.049a.148.148 0 0 0-.035.105v.195c0 .03-.004.065.025.108s.087.06.127.06h.228a.17.17 0 0 1 .116.045.12.12 0 0 1 .037.06c0 .08-.04.29-.11.55-.069.26-.166.58-.275.921a59 59 0 0 1-.605 1.768l-1.014-3.164v-.002a.206.206 0 0 1 .012-.13c.017-.038.033-.048.05-.048h.237c.04 0 .09-.014.12-.052a.146.146 0 0 0 .032-.1v-.195c0-.03.003-.065-.025-.108a.162.162 0 0 0-.127-.062c-.098 0-.38.023-1.035.023-.344 0-.584-.006-.747-.012-.162-.006-.242-.011-.289-.011-.04 0-.09.014-.12.052a.151.151 0 0 0-.032.102v.203c0 .03-.003.063.027.106.03.042.085.054.118.054h.158c.005 0 .102.037.156.11.05.067.129.265.129.435 0 .008-.012.083-.037.176a8.253 8.253 0 0 1-.108.352c-.089.275-.208.62-.332.966-.213.599-.39 1.074-.478 1.313l-1.01-3.213.002.002c-.017-.058-.01-.093.002-.111.012-.019.026-.03.06-.03h.172a.16.16 0 0 0 .127-.052c.034-.042.034-.082.034-.108v-.195c0-.026 0-.068-.034-.11a.16.16 0 0 0-.127-.052c-.097 0-.403.023-.964.023-.403 0-.664-.006-.832-.012-.169-.006-.238-.011-.282-.011zm2.043.197v.125h-.136a.266.266 0 0 0-.227.12.334.334 0 0 0-.025.273h.002l1.095 3.488h.188l.023-.066c.045-.127.306-.821.553-1.514.124-.346.244-.693.334-.973.045-.14.083-.263.11-.36a.9.9 0 0 0 .042-.227.973.973 0 0 0-.168-.553c-.086-.116-.192-.188-.312-.188h-.108v-.123l.239.01c.164.006.408.012.754.012.633 0 .915-.022.992-.023v.125h-.194c-.107 0-.189.075-.228.158a.386.386 0 0 0-.022.273l1.104 3.45h.187l.024-.067c.192-.534.46-1.299.68-1.984.11-.343.206-.667.277-.932.07-.265.115-.466.115-.598a.28.28 0 0 0-.101-.207.363.363 0 0 0-.247-.093h-.185v-.123c.075.002.336.021.805.021.22 0 .389-.006.51-.012l.175-.01v.123h-.105c-.176 0-.37.116-.461.344v.002l-.89 2.395c-.426 1.142-.862 2.311-.934 2.486a.688.688 0 0 1-.069.135c-.025.034-.042.047-.078.047-.024 0-.029-.004-.047-.028a.48.48 0 0 1-.056-.119l-1.426-4h-.184l-1.514 4.016a.435.435 0 0 1-.048.103c-.017.022-.02.028-.055.028-.02 0-.022-.002-.033-.014a.217.217 0 0 1-.04-.076l-1.763-4.97c-.089-.25-.272-.349-.414-.349H58.9v-.123c.032.001.091.005.239.01.17.006.433.012.838.012.546 0 .853-.022.93-.023z" color="#000" font-weight="700" font-size="7.839" font-family="Lato" letter-spacing="0" word-spacing="0" white-space="normal" overflow="visible"/></g></svg>