<svg xmlns="http://www.w3.org/2000/svg" width="100" height="100" viewBox="0 0 26.458 26.458"><g word-spacing="0" letter-spacing="0" font-size="10.583" font-weight="400" fill="#f99d43"><path d="M12.964 5.292a7.766 8.942 0 0 1 3.395 3.282h2.597c.227 0 .437.042.633.127.195.083.365.201.508.354a1.364 1.51 0 0 1 .473 1.155c0 .229-.04.447-.124.652a1.728 1.651 0 0 1-.35.527 1.579 1.508 0 0 1-.508.342 1.525 1.458 0 0 1-.632.127h-1.448a7.766 8.942 0 0 1 .136 1.635 7.766 8.942 0 0 1-.137 1.647h1.45a1.538 1.532 0 0 1 1.14.48 1.366 1.513 0 0 1 .473 1.157c0 .228-.04.441-.124.64a1.726 1.65 0 0 1-.35.526 1.609 1.603 0 0 1-.508.345 1.525 1.458 0 0 1-.632.124H16.36a7.766 8.942 0 0 1-3.408 3.284h6.007c.67 0 1.297-.13 1.885-.39a4.933 4.715 0 0 0 1.535-1.052 4.563 5.052 0 0 0 1.05-1.567 5.204 4.974 0 0 0 .384-1.91c0-.603-.11-1.186-.329-1.75a5.233 5.002 0 0 0-.924-1.534 4.463 4.942 0 0 0 .924-1.521 5.34 5.105 0 0 0 .33-1.762 5.205 4.975 0 0 0-1.435-3.466 4.844 4.63 0 0 0-1.536-1.064 4.438 4.243 0 0 0-1.884-.388z" style="line-height:1.25" font-family="sans-serif"/><path style="-inkscape-font-specification:Righteous" d="M2.647 5.292v3.32l3.262-.038h1.613a5.048 5.589 0 0 1 1.886.39 4.87 5.392 0 0 1 1.547 1.064 4.773 4.756 0 0 1 1.037 1.554c.256.595.384 1.232.384 1.912a4.898 4.88 0 0 1-.384 1.922 4.402 4.874 0 0 1-1.038 1.567 4.896 4.879 0 0 1-1.547 1.052 5.178 5.732 0 0 1-1.884.377H2.646v3.284H7.52c.747 0 1.461-.096 2.146-.287a8.672 9.601 0 0 0 1.94-.834 8.037 8.899 0 0 0 1.637-1.282 7.99 8.849 0 0 0 1.264-1.659 8.103 8.074 0 0 0 .813-1.955 6.642 7.353 0 0 0 .293-2.185c0-.756-.098-1.48-.293-2.174a6.75 7.474 0 0 0-.812-1.956 7.568 8.38 0 0 0-1.265-1.66 7.84 8.68 0 0 0-1.637-1.291 8.278 9.166 0 0 0-1.94-.824 8.44 9.345 0 0 0-2.146-.297z" font-family="Righteous"/></g></svg>