<svg xmlns="http://www.w3.org/2000/svg" width="100" height="100" viewBox="0 0 26.458 26.458"><defs><linearGradient id="a" x1=".043" x2=".984" gradientTransform="translate(192.862 279.652) scale(97.417)" gradientUnits="userSpaceOnUse"><stop offset=".16" stop-color="#6BBF47"/><stop offset=".38" stop-color="#79B461"/><stop offset=".47" stop-color="#75AC64"/><stop offset=".7" stop-color="#659E5A"/><stop offset=".9" stop-color="#3E863D"/></linearGradient></defs><g fill="#001f09"><path d="M14.921 11.895s.962-1.708.739-3.48c-.388-3.077 2.738-5.77 2.738-5.77s-1.47 1.845-1.6 3.113c-.099.954.07 1.045.39 1.856.863 2.176-2.267 4.281-2.267 4.281z" opacity=".7"/><path d="M13.11 12.546s.7-1.24.537-2.528c-.282-2.233 1.988-4.188 1.988-4.188s-1.068 1.34-1.162 2.26c-.072.693.05.759.284 1.347.626 1.58-1.646 3.109-1.646 3.109z" opacity=".7"/><path d="M7.206 12.52a7.145 8.688 0 0 0-.33 2.604 7.145 8.688 0 0 0 7.145 8.689 7.145 8.688 0 0 0 7.146-8.689 7.145 8.688 0 0 0-.338-2.604 7.145 1.406 0 0 1-.148.087 7.145 1.406 0 0 1-.291.129 7.145 1.406 0 0 1-.356.122 7.145 1.406 0 0 1-.415.114 7.145 1.406 0 0 1-.472.106 7.145 1.406 0 0 1-.522.096 7.145 1.406 0 0 1-.57.085 7.145 1.406 0 0 1-.608.073 7.145 1.406 0 0 1-.643.061 7.145 1.406 0 0 1-.671.049 7.145 1.406 0 0 1-.692.034 7.145 1.406 0 0 1-.706.021 7.145 1.406 0 0 1-.714.008 7.145 1.406 0 0 1-.505-.004 7.145 1.406 0 0 1-.71-.017 7.145 1.406 0 0 1-.696-.03 7.145 1.406 0 0 1-.678-.045 7.145 1.406 0 0 1-.652-.057 7.145 1.406 0 0 1-.62-.07 7.145 1.406 0 0 1-.58-.082 7.145 1.406 0 0 1-.537-.093 7.145 1.406 0 0 1-.487-.103 7.145 1.406 0 0 1-.432-.112 7.145 1.406 0 0 1-.374-.12 7.145 1.406 0 0 1-.31-.126 7.145 1.406 0 0 1-.234-.126z" paint-order="stroke fill markers"/><path d="M7.104 13.929a2.9 2.692 31.58 0 0-.738.36 2.9 2.692 31.58 0 0-.457 3.827 2.9 2.692 31.58 0 0 3.997.698 2.9 2.692 31.58 0 0 .457-3.826 2.9 2.692 31.58 0 0-3.26-1.06zm.209.531a2.312 2.146 31.58 0 1 2.599.845 2.312 2.146 31.58 0 1-.365 3.05 2.312 2.146 31.58 0 1-3.186-.556 2.312 2.146 31.58 0 1 .364-3.05 2.312 2.146 31.58 0 1 .588-.289z" paint-order="stroke fill markers"/></g></svg>