<svg xmlns="http://www.w3.org/2000/svg" width="100" height="100" viewBox="0 0 26.458 26.458"><g fill="#34577f"><g fill-opacity=".941"><path d="M10.292 11.951C13.396 15 15 11.14 14.714 11.844c-.747 1.836-3.024 2.115-4.746.424-1.721-1.69-1.402-3.843.432-4.659.79-.35-3.213 1.293-.108 4.342z"/><path d="M8.165 14.003c4.814 4.726 7.299-1.259 6.856-.167-1.157 2.847-4.688 3.28-7.357.659-2.669-2.621-2.174-5.959.67-7.224 1.222-.544-4.981 2.004-.168 6.73z"/><path d="M5.558 16.378c6.21 6.098 9.418-1.624 8.845-.215-1.492 3.673-6.049 4.232-9.493.85-3.443-3.382-2.805-7.69.866-9.322 1.577-.701-6.428 2.587-.218 8.686z"/></g><g style="line-height:1.25"><path style="-inkscape-font-specification:'Yu Gothic Bold'" d="M22.784 9.573l-2.31 7.992q-.735 2.543-4.253 2.543-.136 0-.372-.02-.256-.022-.389-.029l.214-1.275q.257.048.519.048.784 0 1.226-.353.404-.326.606-1.026l2.279-7.88zm1.028-3.223l-.528 1.83h-2.676l.53-1.83z" font-weight="700" font-size="6.083" letter-spacing="0" word-spacing="0" font-family="Yu Gothic"/></g></g></svg>