<svg xmlns="http://www.w3.org/2000/svg" width="100" height="100" viewBox="0 0 26.458 26.458"><path d="M17.589 10.967C10.7 7.04 2.646 13.774 2.646 13.774s6.24-.806 7.088 2.517v-2.316h1.25l1 1.37 1-1.402h1.251v3.255s1.976-2.316 4.625-1.108v-1.213s3.003-1.032 4.764-.676c0 0 .25-.89.174-1.602 0 0-3.246-3.17-9.279-2.85" fill="#800"/><path d="M10.984 15.388l1 1.016 1-1.035v1.829h-2z" fill="#800"/><path d="M16.88 10.678l2.934.906h-2.447z" fill="#fff" paint-order="stroke fill markers"/><path d="M15.469 10.22s-1.152-1.066-2.697-.951c-.798.06.182 2.246 2.182 2.793z" fill="#fff"/><path d="M15.469 10.334s-1.08-.999-2.53-.89c-.748.055.171 2.105 2.047 2.618z" fill="#800"/><path d="M15.469 10.536s-.906-.752-2.12-.67c-.628.041.142 1.584 1.715 1.97z" fill="#fff"/><path d="M15.87 11.569s-.427-.32-1.145-.79c-.37-.244-.127-.006.737.585z" fill="#800"/></svg>