<svg xmlns="http://www.w3.org/2000/svg" width="100" height="100" viewBox="0 0 26.458 26.458"><path d="M20.393 13.157c0 .901.697 1.76.239 2.54-.46.78-1.123 1.484-1.943 2.074-.82.59-.609 1.069-1.456 1.399-.847.33-2.752.513-4.004.513-1.252 0-3.157-.183-4.004-.513-.847-.33-.635-.808-1.456-1.399-.82-.59-1.484-1.293-1.943-2.074-.458-.78.239-1.639.239-2.54 0-1.802-.887-4.388.753-5.57 1.641-1.18 3.907-.955 6.411-.955 2.504 0 4.77-.225 6.41.956 1.641 1.18.754 3.767.754 5.57z" fill="#efcca4" paint-order="stroke fill markers"/><path d="M9.31 6.615S4.718 7 4.192 7.727c-.526.726-1.546 2.743-1.546 3.307 0 .565 1.288.807 1.363 1.29.075.485 1.02 2.098 1.471 2.42.451.323.52-4.973 1.479-5.888zM17.148 6.615S21.74 7 22.266 7.727c.526.726 1.546 2.743 1.546 3.307 0 .565-1.288.807-1.363 1.29-.075.485-1.02 2.098-1.471 2.42-.451.323-.52-4.973-1.479-5.888z" fill="#4e3028"/><g transform="matrix(1.10274 0 0 1.10753 1.388 14.034)"><circle r="1.455" cy="-2.249" cx="8.07" paint-order="stroke fill markers"/><circle cx="8.5" cy="-2.679" r=".496" fill="#fff" paint-order="stroke fill markers"/></g><g transform="matrix(-1.10274 0 0 1.10753 25.07 14.034)"><circle cx="8.07" cy="-2.249" r="1.455" paint-order="stroke fill markers"/><circle r=".496" cy="-2.679" cx="8.5" fill="#fff" paint-order="stroke fill markers"/></g><path d="M17.443 16.49c0 .926.372 2.185-.39 2.792-.763.607-2.66.56-3.824.56-1.164 0-3.061.047-3.824-.56-.762-.607-.39-1.866-.39-2.792 0-1.851 1.887-3.352 4.214-3.352 2.327 0 4.214 1.5 4.214 3.352z" fill="#4e3028" paint-order="stroke fill markers"/><path d="M11.862 13.603a1.367 1.302 0 0 1 1.367-1.303 1.367 1.302 0 0 1 1.367 1.303h-1.367z" fill="#4e3028" paint-order="stroke fill markers"/><g transform="matrix(.89853 0 0 .90243 1.966 2.53)"><ellipse cx="12.089" cy="11.731" rx=".148" ry=".311" paint-order="stroke fill markers"/><ellipse ry=".311" rx=".148" cy="11.731" cx="12.931" paint-order="stroke fill markers"/></g><path d="M12.534 12.402v1.786" fill="none" stroke="#000" stroke-width=".179" transform="matrix(.89853 0 0 .90243 1.966 2.888)"/><path d="M10.684 17.407s-.168-3.174 1.852-3.174c1.927 0 1.852 3.174 1.852 3.174" fill="none" stroke="#000" stroke-width=".265" transform="matrix(.89853 0 0 .90243 1.966 2.888)"/></svg>