<svg xmlns="http://www.w3.org/2000/svg" width="100" height="100" viewBox="0 0 26.458 26.458"><g fill="#916cca"><g transform="matrix(1.00342 0 0 1.01657 .236 .668)"><path d="M13.08 2.597a4.796 8.046 0 0 0-4.796 8.046 4.796 8.046 0 0 0 1.339 5.573c.058-.162.125-.328.19-.494a4.313 7.46 0 0 1-1.046-4.855 4.313 7.46 0 0 1 4.313-7.46 4.313 7.46 0 0 1 4.314 7.46 4.313 7.46 0 0 1-.008.256c.155.057.31.116.47.187a4.796 8.046 0 0 0 .02-.667 4.796 8.046 0 0 0-4.796-8.046z" paint-order="stroke fill markers"/><circle cx="10.426" cy="17.265" r=".897" paint-order="stroke fill markers"/></g><g transform="matrix(-.50171 .88038 -.86899 -.50829 32.229 11.167)"><path d="M13.08 2.597a4.796 8.046 0 0 0-4.796 8.046 4.796 8.046 0 0 0 1.339 5.573c.058-.162.125-.328.19-.494a4.313 7.46 0 0 1-1.046-4.855 4.313 7.46 0 0 1 4.313-7.46 4.313 7.46 0 0 1 4.314 7.46 4.313 7.46 0 0 1-.008.256c.155.057.31.116.47.187a4.796 8.046 0 0 0 .02-.667 4.796 8.046 0 0 0-4.796-8.046z" paint-order="stroke fill markers"/><circle r=".897" cy="17.265" cx="10.426" paint-order="stroke fill markers"/></g><g transform="matrix(-.50171 -.88038 .86899 -.50829 7.354 34.071)"><path d="M13.08 2.597a4.796 8.046 0 0 0-4.796 8.046 4.796 8.046 0 0 0 1.339 5.573c.058-.162.125-.328.19-.494a4.313 7.46 0 0 1-1.046-4.855 4.313 7.46 0 0 1 4.313-7.46 4.313 7.46 0 0 1 4.314 7.46 4.313 7.46 0 0 1-.008.256c.155.057.31.116.47.187a4.796 8.046 0 0 0 .02-.667 4.796 8.046 0 0 0-4.796-8.046z" paint-order="stroke fill markers"/><circle cx="10.426" cy="17.265" r=".897" paint-order="stroke fill markers"/></g></g></svg>