<svg xmlns="http://www.w3.org/2000/svg" width="100" height="100" viewBox="0 0 26.458 26.458"><path overflow="visible" font-weight="400" d="M15.357 2.655c-3.026-.121-6.583.904-8.837 3.557l-.019.024c-1.14 1.51-1.41 2.988-1.077 4.314.333 1.325 1.737 2.47 2.748 3.524 1.449 1.114 1.496 1.425 2.248 2.104-2.801.988-4.877 2.623-5.07 4.252-.214 1.778 1.109 3.382 3.068 3.382 1.43 0 2.912-.433 4.002-1.207.545-.387.995-.866 1.258-1.44a2.419 2.508 0 0 0 .093-1.92c-.319-.95-1.123-1.777-1.971-2.61l2.614-.697c.69-.15.986-1.17.296-1.017l-3.74.828c-.86-.786-1.77-1.57-2.554-2.388-.955-.993-1.7-2.017-1.963-3.06-.26-1.037-.093-2.115.894-3.429 1.986-2.326 5.225-3.286 7.964-3.175 1.374.055 2.612.38 3.467.882.855.501 1.308 1.125 1.327 1.888.03 1.242-.367 1.987-.978 2.521-.61.533-1.483.838-2.398.985-1.83.293-3.215.045-3.734-.053-.519-.098-.073.69.655.893.729.203 1.175.522 3.248.19 1.036-.166 2.105-.513 2.933-1.237.829-.724 1.37-1.84 1.334-3.327-.03-1.173-.784-2.131-1.845-2.754-1.063-.622-2.45-.97-3.963-1.03zm-4.673 14.263l.103.095c.967.918 1.194 1.797 1.448 2.556.148.44.278.854.112 1.216-.165.361-.456.829-.888 1.136-.863.613-1.31.85-2.513.85-1.41 0-2.169-.971-2.02-2.22.147-1.225.813-2.77 3.758-3.633z" style="line-height:normal;font-variant-ligatures:normal;font-variant-position:normal;font-variant-caps:normal;font-variant-numeric:normal;font-variant-alternates:normal;font-feature-settings:normal;text-indent:0;text-align:start;text-decoration-line:none;text-decoration-style:solid;text-decoration-color:#000;text-transform:none;text-orientation:mixed;shape-padding:0;isolation:auto;mix-blend-mode:normal" color="#000" font-family="sans-serif" white-space="normal" fill="#cc669f" fill-opacity=".941"/></svg>