<svg xmlns="http://www.w3.org/2000/svg" width="100" height="100" viewBox="0 0 26.458 26.458"><path d="M12.955 13.232c-1.194 0-3.181 1.33-4.455 2.983-.033.042-.06.083-.092.125h-.005l-5.757 7.469h4.31l5.758-7.469h-.005c.033-.042.069-.083.101-.125 1.274-1.653 1.339-2.983.145-2.983z" fill="#ffd664" paint-order="stroke fill markers"/><path d="M18.57 11.74c-1.301 0-3.53 1.519-4.997 3.404-.038.048-.07.095-.106.143h-.005L6.83 23.809h4.696l6.632-8.522h-.005l.116-.143c1.467-1.885 1.601-3.403.3-3.403z" fill="#bc8a00" paint-order="stroke fill markers"/><path d="M18.585 11.741c-1.289 0-3.496 1.518-4.95 3.403l-.105.143h-.005L6.956 23.81h4.652l6.569-8.522h-.005c.038-.048.078-.094.115-.143 1.453-1.885 1.587-3.403.298-3.403z" fill="#ffd664" paint-order="stroke fill markers"/><path d="M20.31 14.933c-1.107 0-2.86 1.117-3.93 2.504l-.076.105H16.3l-4.834 6.27h3.997l4.834-6.27h-.005l.086-.105c1.069-1.387 1.039-2.504-.068-2.504z" fill="#bc8a00" paint-order="stroke fill markers"/><path d="M20.442 14.933c-1.107 0-2.86 1.117-3.93 2.504l-.076.105h-.004l-4.834 6.27h3.997l4.834-6.27h-.005l.086-.105c1.069-1.387 1.039-2.504-.068-2.504z" fill="#ffd664" paint-order="stroke fill markers"/><path d="M14.36 13.608c-.794 1.42-2.027 2.085-3.303 2.465-1.275.38-2.11.333-1.316-1.087.793-1.42 2.476-3.544 3.75-3.924 1.276-.38 1.329.73.868 2.546zM19.547 11.896c-.82 1.575-2.093 2.313-3.41 2.735-1.316.422-2.177.369-1.358-1.206s2.556-3.93 3.872-4.352c1.317-.422 1.37.81.896 2.823zM21.346 15.124c-.675 1.319-1.724 1.937-2.81 2.29-1.084.354-1.794.309-1.119-1.01.675-1.32 2.106-3.291 3.19-3.645 1.086-.353 1.13.679.739 2.365z" fill="#e880c6" paint-order="stroke fill markers"/><path d="M21.392 2.646l-.21 4.291c.18.12.35.207.52.272l-.658 4.208c-.464.189-.97.637-1.085 1.69-.085.775-.185 1.138-.612 1.736 0 0 .035.001.083-.01.217-.025 1.656-.205 2.636-.702.772-.39.32-1.715.019-2.408.18-1.396.43-3.01.69-4.344.242 0 .498-.015.783-.03-.056-1.48-.053-3.55.254-4.703z" fill="#cc47a0" paint-order="stroke fill markers"/></svg>